<svg width="1024" height="254" viewBox="0 0 1024 254" fill="none" xmlns="http://www.w3.org/2000/svg">
<path d="M737.22 44.728C761.434 44.2 788.287 42.3992 806.891 60.2625C814.445 67.514 819.805 80.9705 820.07 91.2135C820.45 105.812 820.5 120.658 820.215 135.186C819.735 159.51 825.27 187.374 806.496 206.547C792.242 221.1 775.718 220.495 757.109 221.044C734.785 221.463 704.957 223.605 687.678 207.248C673.454 193.782 672.204 175.522 672.784 157.068C673.554 132.624 671.169 107.312 674.124 83.047C674.884 76.8145 680.694 66.2945 685.103 61.6675C699.137 46.6736 717.971 45.2425 737.22 44.728ZM718.106 85.8085C715.631 90.2095 714.481 94.9605 713.871 99.9505C712.767 108.974 712.262 165.748 714.441 173.536C715.516 177.38 717.886 181.621 721.481 183.605C729.256 187.896 751.319 186.229 760.904 185.967C771.493 184.467 778.288 183.137 778.768 170.267C779.597 147.915 778.493 126.379 778.942 103.861C779.327 84.6065 773.483 80.915 754.484 79.9035C747.719 79.5435 738.985 79.63 732.13 80.1625C727.376 81.08 722.251 83.336 718.106 85.8085Z" fill="#6AA607"/>
<path d="M861.712 46.1783C864.922 45.9638 889.466 46.869 890.571 48.3659C902.15 64.0375 911.229 82.476 920.849 99.4995C926.074 108.75 932.023 117.625 937.088 126.977C939.788 131.896 947.352 146.532 950.097 149.783L951.302 149.648C954.322 146.576 951.402 127.747 952.012 122.698C953.347 111.632 949.742 54.4015 952.987 47.9011C956.577 46.1698 987.2 46.7935 992.864 47.2488C992.874 47.4603 992.879 47.6719 992.884 47.8835C993.009 54.196 992.459 62.3835 992.419 69.0385L992.359 123.574L992.389 190.438C992.389 194.435 993.244 217.395 991.59 219.126C987.68 220.751 978.87 220.181 974.316 220.115C946.257 219.812 953.667 225.377 939.868 201.956L902.125 138.363C897.93 131.326 892.306 119.225 887.156 113.915C886.551 117.83 886.596 121.527 886.721 125.466C887.696 155.601 886.441 185.832 887.071 215.99C887.091 217.109 886.836 218.163 886.106 219.029C883.626 220.801 849.948 220.667 847.818 218.403C846.218 214.487 846.968 197.615 846.978 192.436L846.878 157.309C846.968 126.459 845.688 95.4555 846.858 64.585C847.068 59.06 846.298 52.941 847.008 47.5194C848.733 46.1528 857.343 47.3142 861.712 46.1783Z" fill="#6AA607"/>
<path d="M138.026 47.4011C146.388 46.0838 168.924 46.7073 178.78 46.496C179.951 53.571 178.884 60.1855 178.643 67.308C178.466 72.5395 178.473 77.7325 178.481 82.9655L178.485 191.37C178.44 196.436 179.591 216.11 178.311 218.892C175.321 220.417 142.84 220.163 138.007 219.645C132.752 213.86 127.874 201.843 124.139 197.437C115.949 187.773 82.0915 119.734 74.6304 114.535C74.0555 115.171 74.035 117.551 74.0745 118.486C75.2884 147.547 74.1575 176.709 74.5704 205.797C74.6364 210.433 74.7609 215.119 74.5739 219.75C70.4952 220.029 63.9941 219.829 59.7078 219.871C51.2774 219.954 42.433 220.141 34.0314 219.94C33.8023 181.417 33.7756 142.893 33.9512 104.369L33.9066 68.7445C33.8449 62.296 33.4299 53.1825 33.8005 46.964C39.5092 46.4072 48.9702 46.6627 54.8691 46.6768C61.5447 46.6928 70.7887 46.4703 77.2858 47.0771C81.288 50.9695 87.5161 63.92 90.7444 69.4445L126.835 131.543C128.654 134.721 134.943 147.124 136.758 148.998L138.455 150.515C139.171 149.082 138.458 56.536 138.026 47.4011Z" fill="#FAFAF9"/>
<path d="M497.2 44.75C530.328 42.9469 577.485 43.261 577.105 88.052C577.07 92.1555 578.765 98.151 575.94 101.61C572.82 103.565 543.907 102.001 537.392 101.892C537.417 95.764 537.407 91.483 536.292 85.4855C535.037 84.3145 532.083 81.567 530.608 81.026C523.738 78.506 513.584 78.7075 506.214 78.7895C499.662 78.8625 488.491 78.757 483.798 83.4505C480.551 87.111 481.311 94.363 481.383 99.0065C481.753 110.561 495.799 110.47 504.119 112.171C508.424 113.053 512.769 114.098 517.043 114.971C534.407 118.515 555.106 119.982 568.85 132.353C577.875 140.478 580.12 154.039 580.64 165.539C581.33 180.71 579.23 197.067 568.72 208.791C557.026 220.835 533.987 220.651 518.483 221.043C515.494 221.473 512.474 221.662 509.454 221.611C503.549 221.558 497.337 220.955 491.528 220.73C477.343 220.179 461.139 219.524 450.683 208.244C438.257 194.839 438.82 179.111 439.033 162.413C449.429 161.051 462.478 162.511 473.2 161.877C474.048 161.827 477.727 162.09 478.194 162.792C482.196 168.815 477.722 178.744 483.318 184.637C487.395 187.839 504.734 186.585 510.424 186.752C516.718 186.936 532.043 187.112 536.787 183.315C539.432 179.777 538.797 169.581 538.682 165.648C538.147 153.385 521.748 151.975 512.594 150.326C506.194 149.496 497.589 146.881 491.457 146.105C462.14 142.396 440.89 134.006 440.596 100.727C440.482 87.767 440.677 69.509 450.917 59.0405C462.412 47.2904 481.69 45.2391 497.2 44.75Z" fill="#6AA607"/>
<path d="M276.482 171.29C280.295 163.742 279.36 159.844 281.478 152.265C282.92 147.137 285.375 141.918 286.638 136.781C288.783 125.81 293.002 115.128 295.633 104.422C298.846 91.352 302.655 78.5045 306.738 65.6585C308.081 61.4345 310.373 50.7515 312.161 47.6971C318.777 44.9098 341.822 47.6745 350.106 46.65C351.737 46.4483 353.877 46.5657 354.866 48.0335C354.821 54.041 349.812 64.6165 347.993 70.813C346.367 76.3535 345.086 81.7615 342.936 87.118C341.163 92.1125 340.019 97.4425 338.258 102.474C324.739 141.106 313.398 181.063 299.542 219.503C293.909 219.874 286.83 219.712 281.066 219.766C271.158 219.923 261.248 219.971 251.338 219.911C249.946 215.387 249.05 210.84 247.412 206.384C239.786 185.637 233.636 164.494 226.722 143.558L204.243 75.515C202.604 70.392 195.986 52.491 196.346 47.6625C197.813 46.6498 199.095 46.8593 201.047 46.7025C212.489 46.8002 226.095 46.2545 237.54 47.1228C239.316 47.2577 240.376 49.478 240.94 51.134C244.389 61.25 246.758 72.615 249.694 82.7665L269.908 150.408C272.467 158.997 271.687 163.53 276.482 171.29Z" fill="#FAFAF9"/>
<path d="M611.813 46.6798C615.852 46.1335 641.506 46.0923 645.061 47.9064C647.071 51.797 645.996 69.03 645.991 74.066C645.956 121.183 646.111 168.32 645.806 215.433C645.796 216.562 645.621 218.759 645.051 219.675C642.741 220.303 637.001 220.097 634.336 220.085C626.502 219.899 611.383 220.684 604.443 219.304C603.963 202.325 602.823 51.5405 605.443 47.9552C607.133 46.9714 609.808 46.8863 611.813 46.6798Z" fill="#6AA607"/>
<path d="M374.938 47.0912C379.416 46.5734 410.863 46.3102 413.819 48.1897C415.448 53.688 414.921 76.2675 414.938 83.2655L414.967 149.587L414.983 194.202C414.977 201.756 415.036 209.427 414.829 216.979C414.79 218.394 414.088 219.108 413.064 219.987C406.096 220.376 379.587 220.429 373.563 219.12C372.933 210.544 373.152 198.234 373.117 189.421L373.083 135.694L373.019 87.786C372.935 76.0705 372.758 64.17 373.152 52.4625C373.239 49.8836 373.188 48.6607 374.938 47.0912Z" fill="#6AA607"/>
<path d="M136.758 148.999L136.763 148.841C136.816 146.477 136.279 144.401 135.784 142.104L136.132 142.021C137.925 144.058 138.129 147.737 138.455 150.515L136.758 148.999Z" fill="#808486"/>
</svg>
