<svg width="896" height="961" viewBox="0 0 896 961" fill="none" xmlns="http://www.w3.org/2000/svg">
<path d="M444.047 102.347C444.141 96.2009 443.647 49.3761 445.103 47.4545C446.339 48.553 446.398 49.4192 446.623 51.1001C448.609 65.9552 444.571 88.1159 447.809 102.177C551.859 104.023 644.162 143.273 716.72 218.205C772.32 276.782 807.996 351.418 818.655 431.464C820.42 444.947 821.837 457.616 821.922 471.279C821.931 473.325 821.457 476.413 822.316 478.182L823.644 478.731C823.898 480.275 823.616 480.045 822.588 481.809C821.809 484.761 822.189 492.62 821.992 496.238C821.26 509.748 820.922 520.39 819.288 533.866C815.778 564.362 808.775 594.351 798.411 623.247C795.29 632.022 791.324 640.215 788.194 648.867C786.833 651.322 786.349 652.293 785.34 654.968C742.798 747.985 665.415 820.58 569.859 857.12C549.137 864.923 524.735 871.188 502.976 875.327C497.437 876.378 490.627 876.908 485.647 877.982C478.546 878.353 463.194 878.602 457.142 879.381C454.785 879.235 450.135 879.348 447.906 879.991C446.077 883.463 448.255 926.544 446.585 935.525L445.526 935.713C442.948 930.636 444.17 888.451 444.286 880.16C433.297 879.113 421.651 879.277 410.755 878.104C308.13 867.03 213.795 811.022 151.281 729.459C138.78 713.148 128.296 695.477 118.143 677.801C113.706 669.697 109.63 660.791 105.58 652.462C103.479 648.135 102.289 644.208 99.7836 639.966C99.027 636.611 96.3183 630.478 95.0515 627.081C77.3564 579.608 69.6664 532.604 68.9638 481.88C62.6688 481.973 16.3112 482.842 14.4293 481.387L14.5434 480.533C19.3361 477.004 57.4533 481.166 67.1366 479.017C68.3076 478.754 68.7202 478.59 68.9633 477.356C69.735 473.447 69.2304 468.672 69.5754 464.613C70.5408 452.078 71.7865 439.566 73.3114 427.086C78.2186 386.358 96.0344 335.453 115.666 299.627C154.168 229.365 214.475 171.669 287.075 137.612C298.754 132.133 319.032 123.398 331.409 119.942C334.859 119.477 342.961 116.477 346.869 115.533C354.662 113.649 362.502 111.726 370.304 109.855C378.152 107.972 386.121 107.912 393.796 105.963C399.661 104.761 405.137 104.682 410.983 104.022C422.619 102.708 432.353 102.282 444.047 102.347ZM447.533 616.016C522.454 614.927 582.287 553.284 581.123 478.379C579.964 403.479 518.253 343.719 443.333 344.949C368.51 346.176 308.83 407.776 309.989 482.579C311.148 557.385 372.708 617.105 447.533 616.016ZM443.911 875.585C444.6 871.774 444.355 867.5 444.23 863.619C443.718 847.876 444.579 831.927 444.03 816.198C370.721 814.851 300.287 787.452 245.349 738.905C239.023 733.335 228.828 723.016 222.944 716.832C173.169 663.803 141.74 596.2 133.284 523.975C131.787 511.31 130.489 497.097 130.82 484.348C130.837 483.747 130.857 483.142 130.881 482.536C125.93 481.758 116.264 482.025 110.902 482.03L75.562 482.124C73.8348 482.335 73.9911 482.011 73.1068 483.015C72.5018 497.027 74.6092 512.746 75.9337 526.692C86.0216 632.941 139.852 731.2 223.968 797.461C284.736 845.15 358.978 872.502 436.167 875.641C438.803 875.749 441.278 875.824 443.911 875.585ZM811.126 560.036C812.074 556.029 814.285 543.171 814.337 539.385C815.914 533.862 817.96 510.254 817.97 504.262C818.345 496.74 818.645 489.355 818.317 481.819C807.052 481.866 793.446 481.631 782.397 482.386C775.798 482.114 767.669 482.307 761.023 482.541C761.619 504.004 759.478 523.201 755.63 544.27C744.079 609.55 713.759 670.053 668.367 718.385C626.374 762.479 572.68 793.688 513.578 808.352C506.177 810.149 498.507 810.98 491.026 812.317C479.339 814.41 467.433 815.94 455.54 815.874C443.396 815.813 447.309 817.033 447.309 826.568C447.309 841.297 447.363 856.036 447.014 870.756C446.984 871.995 447.225 873.769 447.707 874.885C451.6 876.429 482.868 873.82 488.829 873.098C521.801 868.832 553.999 859.893 584.456 846.553C681.002 804.941 752.105 729.154 790.723 631.75C799.866 608.574 806.696 584.554 811.126 560.036ZM762.999 478.576C765.505 479.425 814.543 479.749 817.866 478.82C820.476 472.518 812.943 418.629 811.197 410.513C792.23 311.487 734.603 224.087 651.048 167.625C643.074 162.205 635.019 158.027 626.688 153.301C582.752 128.363 532.489 112.149 482.066 107.998C469.844 106.991 458.799 105.451 446.312 106.702C446.805 113.829 446.715 160.932 446.958 161.587C452.144 163.607 463.055 162.947 469.16 163.5C484.99 164.934 501.488 167.296 516.906 171.221C601.127 192.076 673.361 246.044 717.222 320.888C741.347 362.892 755.639 409.389 760.168 457.4C760.506 460.984 760.572 476.591 761.642 478.398L762.999 478.576ZM76.0088 442.487C75.6653 446.873 75.1762 453.762 74.2586 457.894C73.5762 464.037 73.6498 472.377 73.5701 478.647C80.2551 479.782 125.521 479.946 129.748 478.501C131.358 470.12 131.425 462.424 132.269 454.102C133.853 438.477 136.138 424.76 139.766 409.495C140.847 402.99 142.815 397.625 144.385 391.277C146.688 386.364 150.977 372.158 153.352 365.967C160.163 348.727 168.358 332.065 177.858 316.146C213.307 257.495 268.367 210.202 332.243 184.96C337.502 182.881 351.901 177.326 356.981 176.068C375.186 172.173 391.424 166.294 410.547 164.677C414.223 164.367 443.865 162.457 444.088 162.372C444.134 143.77 443.553 125.174 443.997 106.563C432.854 105.854 423.717 106.839 412.786 107.828C368.38 111.846 326.208 123.025 285.901 142.689C283.746 143.664 280.238 145.132 278.274 146.229C270.06 151.398 259.449 156.145 251.356 161.448C241.335 168.015 229.668 175.761 220.193 182.976C151.688 236.103 103.478 311.11 83.6077 395.482C80.2692 410.067 76.8748 427.501 76.0088 442.487ZM446.631 627.677C447.645 641.097 447.327 658.355 447.26 671.959L447.333 721.843C447.331 730.604 447.01 739.609 447.184 748.294L447.935 748.965C456.3 751.457 491.899 745.718 501.572 743.306C569.047 726.676 626.984 683.6 662.331 623.782C676.177 600.522 686.315 575.249 692.384 548.873C692.952 546.442 694.792 539.788 694.294 537.794C692.717 537.672 685.973 542.594 684.396 543.659C668.991 553.922 653.16 563.527 636.944 572.457C592.651 597.181 544.56 614.374 494.63 623.336C490.965 623.984 486.572 624.795 482.878 625.157C476.546 625.734 469.985 626.607 463.672 627.015C458.037 627.376 452.356 627.32 446.631 627.677ZM444.446 749.28L444.04 627.494C371.35 625.94 302.958 600.006 240.402 564.419C236.155 562.002 231.732 559.759 227.611 557.145C221.701 553.391 200.773 538.381 196.08 537.118C198.414 551.008 204.384 568.374 209.549 581.701C230.216 635.02 259.875 672.7 306.268 705.687C332.453 723.978 362.027 736.859 393.255 743.578C403.875 745.901 434.312 751.297 444.446 749.28ZM491.068 749.725C484.746 750.617 478.438 751.584 472.12 752.489C468.077 753.071 463.615 753.043 459.622 753.451C455.332 753.737 452.144 753.878 447.84 753.803C446.59 759.833 447.28 780.77 447.289 787.968C447.299 795.368 446.747 804.917 446.752 812.134C448.584 812.205 450.417 812.237 452.25 812.237C466.238 812.28 478.133 810.112 491.8 808.033C605.901 790.704 700.527 704.181 738.165 595.895C748.261 566.117 754.306 535.119 756.141 503.732C756.512 497.81 757.099 492.147 757.108 486.206C751.251 490.781 746.825 495.891 741.052 501.015C728.412 512.239 713.942 522.365 701.208 533.327C700.241 534.157 699.044 539.296 698.739 540.825C683.485 617.199 634.653 683.793 566.892 722.003C563.982 723.641 559.899 725.48 557.172 727.333L556.477 727.812C554.361 728.91 552.295 730.017 550.085 730.932C536.37 736.887 522.275 741.931 507.894 746.033C503.896 747.159 493.218 748.979 491.068 749.725ZM593.228 478.088L593.369 478.783L593.359 482.142C593.162 484.155 593.237 488.153 592.989 489.627C591.698 497.191 590.557 508.495 588.732 515.726C581.574 544.091 563.546 573.564 541.219 592.578C536.929 596.228 531.921 599.602 527.636 603.135C536.037 601.854 556.008 595.168 564.053 592.235C621.46 570.786 674.896 539.934 722.169 500.94C728.553 495.746 736.485 489.584 742.61 483.897C743.028 483.513 743.243 482.386 743.394 481.795L743.539 480.256C743.459 478.276 743.107 478.276 741.962 477.014C738.592 472.631 726.023 462.982 721.719 459.44C704.475 445.238 686.151 431.898 667.241 419.994C663.843 417.854 656.004 412.874 652.475 411.381L650.973 410.024C640.816 405.84 630.415 397.822 620.244 393.036C595.138 381.221 569.676 369.417 542.988 361.585C537.666 360.023 531.808 357.966 526.396 357.032L526.946 357.538C533.211 363.26 540.468 367.387 546.724 373.361C570.215 395.803 587.192 427.202 590.919 459.6C591.473 464.385 592.956 469.703 593.19 474.517C593.256 475.709 593.27 476.901 593.228 478.088ZM446.546 226.117C447.28 242.78 446.928 262.521 446.765 279.333C446.675 288.57 448.338 327.224 446.523 333.573C516.075 334.82 583.226 358.69 643.515 392.326C653.92 398.032 664.105 404.138 674.042 410.63C678.773 413.662 688.934 420.654 693.44 422.831C681.594 363.334 636.484 301.727 586.446 268.292C565.142 253.993 541.782 243.023 517.169 235.761C511.053 234.013 504.355 232.775 498.113 231.317C489.036 228.859 480.705 227.868 471.388 227.355C462.928 226.558 455.071 225.729 446.546 226.117ZM149.203 482.602L147.929 483.325C210.163 539.995 284.722 581.428 365.72 604.351C355.887 597.068 349.156 591.869 340.286 583.235C315.339 558.952 297.8 517.082 298.036 482.185L292.14 481.912C292.871 480.866 295.563 481.209 296.85 481.199C295.811 480.645 291.562 480.462 290.093 480.336C291.949 480.143 293.386 480.204 295.316 479.913C296.676 479.547 296.747 479.637 297.81 478.764C298.562 474.306 298.286 468.917 298.816 464.305C302.725 430.303 318.032 398.876 342.751 375.144C350.631 367.579 356.777 363.648 364.81 356.93C350.408 360.802 336.409 364.708 322.673 370.615C320.538 371.533 318.373 372.476 316.214 373.328C265.307 393.323 217.685 420.829 174.932 454.932C170.333 458.535 150.494 474.569 147.976 478.562L150.34 478.872C149.522 480.233 148.693 480.941 149.203 482.602ZM443.867 754.08C429.826 753.817 417.481 751.682 403.681 749.702C387.799 747.426 373.945 742.687 358.804 737.586C343.501 732.223 316.739 718.343 303.532 708.662C297.746 704.026 291.706 699.958 285.974 695.195C253.209 667.956 226.822 633.378 210.28 594.056C208.435 589.668 205.472 583.69 203.912 579.218C201.56 572.471 199.157 565.296 197.043 558.412C194.92 551.744 193.997 540.473 190.895 534.514C188.386 529.695 177.659 523.431 173.466 519.864C163.174 511.113 152.017 503.305 142.39 493.77C140.365 491.762 138.608 489.068 136.288 487.515C133.235 488.623 135.829 503.197 135.992 506.637C138.632 562.138 157.706 618.095 187.77 664.676C193.637 673.765 199.224 682.728 205.91 691.268C242.265 737.596 289.934 773.558 345.228 794.176C359.102 799.352 373.265 802.618 387.641 806.029C391.766 807.01 397.939 807.32 402.353 808.188C415.97 810.867 430.036 812.646 443.966 812.341L443.867 754.08ZM444.029 221.346C444.33 213.927 443.834 199.485 443.506 191.767C443.846 183.33 444.126 175.537 444.048 167.072C429.851 166.934 424.451 166.929 410.507 169.362C406.135 169.514 401.79 170.582 397.483 171.148C384.686 172.831 372.789 175.832 360.4 179.388L357.472 179.996C240.904 217.501 161.11 311.06 139.043 431.288C136.633 444.418 136.766 458.429 134.899 471.749L135.238 472.593C137.669 471.744 144.308 465.349 146.43 463.435C155.964 454.955 165.811 446.835 175.953 439.093C180.885 435.276 191.18 428.955 193.312 423.604C195.253 419.282 197.835 407.576 199.535 402.26C202.213 396.392 205.263 386.447 208.278 379.452C218.351 355.95 231.936 334.115 248.568 314.692C283.198 273.358 329.747 243.72 381.857 229.827C391.899 227.162 400.523 224.81 410.975 224.002C421.986 223.151 433.019 222.243 444.029 221.346ZM357.987 241.281C280.631 268.683 216.998 342.202 198.222 421.675C208.091 417.513 218.248 409.273 227.519 403.788C277.061 374.472 330.584 350.358 387.359 339.37C406.197 335.725 425.081 334.225 444.239 333.406C442.762 315.234 443.825 292.282 443.755 273.788L443.602 245.588C443.57 239.727 443.308 231.777 444.146 226.139C425.697 225.34 390.224 230.169 372.569 236.691C367.379 238.156 362.965 239.791 357.987 241.281ZM751.945 430.613C751.208 422.612 748.327 411.033 746.351 403.143C733.241 351.939 707.493 304.842 671.455 266.168C657.83 251.442 641.881 237.269 625.628 225.388C587.539 197.424 543.34 178.93 496.682 171.441C477.297 168.182 466.745 166.457 446.645 167.13C446.943 174.008 446.696 218.844 447.663 220.547C454.504 222.948 464.313 222.487 471.923 223.158C572.37 232.033 660.515 306.533 691.75 401.442C692.581 403.967 697.969 424.999 699.331 426.243C713.416 439.133 734.621 452.577 748.345 466.848C750.533 469.123 753.888 472.603 756.376 472.011C757.775 469.848 755.038 449.211 754.466 445.838C753.71 440.626 753.025 435.777 751.945 430.613Z" fill="#939495"/>
<path d="M436.972 373.514C493.654 368.904 544.138 409.183 552.216 465.461C560.298 521.741 523.181 574.587 467.49 586.102C411.8 597.617 356.762 563.823 341.849 508.959C326.936 454.092 357.298 397.098 411.158 378.851C419.512 376.021 428.181 374.228 436.972 373.514ZM493.152 460.677C485.032 462.824 482.432 468.283 471.862 463.252C466.863 460.845 463.085 456.473 461.428 451.178C458.592 442.044 461.059 439.2 464.757 432.216C449.04 427.033 436.973 426.709 421.744 434.267C409.883 440.189 400.896 450.624 396.802 463.231C392.121 477.356 393.098 491.621 399.75 504.905C410.69 526.753 439.509 538.113 462.379 529.592C462.454 529.545 462.528 529.498 462.603 529.451C468.077 527.963 474.828 523.379 479.574 520.216L479.987 520.535C484.675 516.73 497.508 503.577 494.851 497.28C495.349 495.328 495.691 493.667 496.057 491.687C498.775 483.367 496.827 468.968 493.152 460.677Z" fill="#6FA902"/>
<path d="M411.158 378.851C419.512 376.021 428.181 374.228 436.972 373.514C435.351 374.671 434.226 375.393 432.824 376.835L431.968 376.955C426.177 377.789 417.277 381.295 412.814 380.598C411.805 379.847 411.787 379.917 411.158 378.851Z" fill="#A5C270"/>
<path d="M462.603 529.451C462.528 529.498 462.454 529.545 462.379 529.592C439.509 538.113 410.69 526.753 399.75 504.905C393.098 491.621 392.121 477.356 396.802 463.231C400.896 450.624 409.883 440.189 421.744 434.267C436.973 426.709 449.04 427.033 464.757 432.216C461.059 439.2 458.591 442.044 461.428 451.178C463.085 456.473 466.863 460.845 471.862 463.252C482.432 468.283 485.032 462.824 493.152 460.677C496.827 468.968 498.775 483.367 496.057 491.687C493.589 493.756 495.316 493.08 493.603 495.506L493.607 495.093C490.204 504.178 485.746 509.142 479.757 516.57C479.677 516.669 479.461 518.701 479.217 519.376C473.312 520.296 466.281 524.89 462.603 529.451Z" fill="#273217" fill-opacity="0.898039"/>
<path d="M464.901 431.847C473.453 423.147 484.769 419.703 494.396 429.47C498.625 433.74 500.864 439.589 500.563 445.591C500.343 450.349 497.226 457.587 493.312 460.455L493.152 460.677C485.032 462.824 482.432 468.283 471.862 463.252C466.863 460.845 463.085 456.473 461.428 451.178C458.591 442.044 461.059 439.2 464.757 432.216L464.901 431.847Z" fill="#858879"/>
<path d="M464.901 431.847C473.453 423.147 484.769 419.703 494.396 429.47C498.625 433.74 500.864 439.589 500.563 445.591C500.343 450.349 497.226 457.587 493.312 460.455C490.791 453.12 481.596 442.221 475.293 437.673C472.599 435.73 468.363 433.932 465.498 432.21L464.901 431.847Z" fill="#A5C270"/>
<path d="M479.217 519.376C479.461 518.701 479.677 516.669 479.757 516.57C485.746 509.142 490.204 504.178 493.607 495.093L493.603 495.506C495.316 493.08 493.589 493.756 496.057 491.687C495.691 493.667 495.349 495.328 494.851 497.28C491.791 504.891 486.314 514.463 479.808 519.625L479.217 519.376Z" fill="#273217" fill-opacity="0.933333"/>
<path d="M462.603 529.451C466.281 524.89 473.312 520.296 479.217 519.376L479.808 519.625L479.574 520.216C474.828 523.379 468.077 527.963 462.603 529.451Z" fill="#273217" fill-opacity="0.937255"/>
<path d="M494.851 497.28C497.508 503.577 484.676 516.73 479.987 520.535L479.574 520.216L479.808 519.625C486.314 514.463 491.791 504.891 494.851 497.28Z" fill="#A5C270" fill-opacity="0.988235"/>
<path d="M593.369 478.783C603.605 479.815 622.309 479.454 633.241 479.491L705.784 479.519C716.814 479.51 733.171 478.75 743.539 480.256L743.394 481.795C740.554 481.471 734.495 481.945 731.125 481.955L701.208 481.926L593.359 482.142L593.369 478.783Z" fill="#828E84" fill-opacity="0.980392"/>
<path d="M150.34 478.872C155.125 479.444 160.574 479.224 165.441 479.257L189.524 479.458C216.133 479.346 242.742 479.463 269.349 479.81C274.62 479.899 291.646 479.181 295.316 479.913C293.386 480.204 291.949 480.143 290.093 480.336C291.562 480.462 295.811 480.645 296.85 481.199C295.563 481.209 292.871 480.866 292.14 481.912C280.596 482.419 266.317 481.908 254.465 481.898C230.335 481.819 206.205 481.908 182.076 482.161C175.461 482.217 154.653 481.584 149.203 482.602C148.693 480.941 149.522 480.233 150.34 478.872Z" fill="#819083" fill-opacity="0.984314"/>
<path d="M147.929 483.325C147.862 482.419 147.04 481.636 146.398 480.749C146.897 479.454 146.948 479.533 147.976 478.562L150.34 478.872C149.522 480.233 148.693 480.941 149.203 482.602L147.929 483.325Z" fill="#858879"/>
<path d="M850.66 479.407C856.429 479.458 870.885 479.163 875.705 480.495L875.775 480.875C872.096 481.561 848.445 481.744 844.122 481.448C841.466 481.082 839.213 480.627 836.594 480.087C840.94 479.472 846.201 479.505 850.66 479.407Z" fill="#939495"/>
<path d="M823.644 478.731C832.407 479.519 841.855 478.844 850.66 479.407C846.201 479.505 840.94 479.472 836.594 480.087C839.213 480.627 841.466 481.082 844.122 481.448L822.588 481.809C823.616 480.045 823.898 480.275 823.644 478.731Z" fill="#939495"/>
</svg>
